<mxfile host="app.diagrams.net" modified="2022-01-02T16:28:40.566Z" agent="5.0 (Windows NT 10.0; Win64; x64) AppleWebKit/537.36 (KHTML, like Gecko) Chrome/96.0.4664.110 Safari/537.36" etag="DBOW3HmsOO-GXKaIr3Jq" version="15.5.4" type="github">
  <diagram id="kgpKYQtTHZ0yAKxKKP6v" name="Page-1">
    <mxGraphModel dx="978" dy="359" grid="0" gridSize="10" guides="1" tooltips="1" connect="1" arrows="1" fold="1" page="1" pageScale="1" pageWidth="850" pageHeight="1100" math="0" shadow="0">
      <root>
        <mxCell id="0" />
        <mxCell id="1" parent="0" />
        <mxCell id="3nuBFxr9cyL0pnOWT2aG-1" value="ClientA" style="shape=umlLifeline;perimeter=lifelinePerimeter;container=1;collapsible=0;recursiveResize=0;rounded=0;shadow=0;strokeWidth=1;" parent="1" vertex="1">
          <mxGeometry x="120" y="80" width="100" height="300" as="geometry" />
        </mxCell>
        <mxCell id="3nuBFxr9cyL0pnOWT2aG-2" value="" style="points=[];perimeter=orthogonalPerimeter;rounded=0;shadow=0;strokeWidth=1;" parent="3nuBFxr9cyL0pnOWT2aG-1" vertex="1">
          <mxGeometry x="45" y="70" width="10" height="190" as="geometry" />
        </mxCell>
        <mxCell id="I_3hnfbxCUIilwJNc-OJ-8" value="CallClose()" style="html=1;verticalAlign=bottom;endArrow=block;rounded=0;entryX=0.433;entryY=0.307;entryDx=0;entryDy=0;entryPerimeter=0;" edge="1" parent="3nuBFxr9cyL0pnOWT2aG-1" target="3nuBFxr9cyL0pnOWT2aG-5">
          <mxGeometry width="80" relative="1" as="geometry">
            <mxPoint x="60" y="92" as="sourcePoint" />
            <mxPoint x="140" y="90" as="targetPoint" />
          </mxGeometry>
        </mxCell>
        <mxCell id="3nuBFxr9cyL0pnOWT2aG-5" value="ClientB" style="shape=umlLifeline;perimeter=lifelinePerimeter;container=1;collapsible=0;recursiveResize=0;rounded=0;shadow=0;strokeWidth=1;" parent="1" vertex="1">
          <mxGeometry x="300" y="80" width="100" height="300" as="geometry" />
        </mxCell>
        <mxCell id="3nuBFxr9cyL0pnOWT2aG-6" value="" style="points=[];perimeter=orthogonalPerimeter;rounded=0;shadow=0;strokeWidth=1;" parent="3nuBFxr9cyL0pnOWT2aG-5" vertex="1">
          <mxGeometry x="45" y="70" width="10" height="190" as="geometry" />
        </mxCell>
        <mxCell id="I_3hnfbxCUIilwJNc-OJ-9" value="dialog" style="html=1;verticalAlign=bottom;endArrow=block;rounded=0;" edge="1" parent="3nuBFxr9cyL0pnOWT2aG-5" target="I_3hnfbxCUIilwJNc-OJ-2">
          <mxGeometry width="80" relative="1" as="geometry">
            <mxPoint x="60" y="110" as="sourcePoint" />
            <mxPoint x="140" y="110" as="targetPoint" />
          </mxGeometry>
        </mxCell>
        <mxCell id="I_3hnfbxCUIilwJNc-OJ-11" value="handleClose()" style="edgeStyle=orthogonalEdgeStyle;html=1;align=left;spacingLeft=2;endArrow=block;rounded=0;entryX=1;entryY=0;" edge="1" parent="3nuBFxr9cyL0pnOWT2aG-5">
          <mxGeometry relative="1" as="geometry">
            <mxPoint x="55" y="130" as="sourcePoint" />
            <Array as="points">
              <mxPoint x="85" y="130" />
            </Array>
            <mxPoint x="60" y="150" as="targetPoint" />
          </mxGeometry>
        </mxCell>
        <mxCell id="I_3hnfbxCUIilwJNc-OJ-12" value="close chatUI" style="html=1;verticalAlign=bottom;endArrow=block;rounded=0;entryX=0.167;entryY=0.546;entryDx=0;entryDy=0;entryPerimeter=0;" edge="1" parent="3nuBFxr9cyL0pnOWT2aG-5">
          <mxGeometry width="80" relative="1" as="geometry">
            <mxPoint x="55" y="170.26" as="sourcePoint" />
            <mxPoint x="171.67000000000007" y="170" as="targetPoint" />
          </mxGeometry>
        </mxCell>
        <mxCell id="I_3hnfbxCUIilwJNc-OJ-1" value="" style="shape=umlLifeline;participant=umlActor;perimeter=lifelinePerimeter;whiteSpace=wrap;html=1;container=1;collapsible=0;recursiveResize=0;verticalAlign=top;spacingTop=36;outlineConnect=0;" vertex="1" parent="1">
          <mxGeometry x="30" y="80" width="20" height="300" as="geometry" />
        </mxCell>
        <mxCell id="I_3hnfbxCUIilwJNc-OJ-3" value="" style="html=1;points=[];perimeter=orthogonalPerimeter;" vertex="1" parent="I_3hnfbxCUIilwJNc-OJ-1">
          <mxGeometry x="5" y="70" width="10" height="190" as="geometry" />
        </mxCell>
        <mxCell id="I_3hnfbxCUIilwJNc-OJ-2" value="" style="shape=umlLifeline;participant=umlActor;perimeter=lifelinePerimeter;whiteSpace=wrap;html=1;container=1;collapsible=0;recursiveResize=0;verticalAlign=top;spacingTop=36;outlineConnect=0;" vertex="1" parent="1">
          <mxGeometry x="470" y="80" width="20" height="300" as="geometry" />
        </mxCell>
        <mxCell id="I_3hnfbxCUIilwJNc-OJ-4" value="" style="html=1;points=[];perimeter=orthogonalPerimeter;" vertex="1" parent="I_3hnfbxCUIilwJNc-OJ-2">
          <mxGeometry x="5" y="70" width="10" height="190" as="geometry" />
        </mxCell>
        <mxCell id="I_3hnfbxCUIilwJNc-OJ-5" value="userA" style="text;align=center;fontStyle=1;verticalAlign=middle;spacingLeft=3;spacingRight=3;strokeColor=none;rotatable=0;points=[[0,0.5],[1,0.5]];portConstraint=eastwest;" vertex="1" parent="1">
          <mxGeometry x="10" y="50" width="80" height="26" as="geometry" />
        </mxCell>
        <mxCell id="I_3hnfbxCUIilwJNc-OJ-6" value="userB" style="text;align=center;fontStyle=1;verticalAlign=middle;spacingLeft=3;spacingRight=3;strokeColor=none;rotatable=0;points=[[0,0.5],[1,0.5]];portConstraint=eastwest;" vertex="1" parent="1">
          <mxGeometry x="440" y="54" width="80" height="26" as="geometry" />
        </mxCell>
        <mxCell id="I_3hnfbxCUIilwJNc-OJ-7" value="close chatUI" style="html=1;verticalAlign=bottom;endArrow=block;rounded=0;entryX=0.457;entryY=0.264;entryDx=0;entryDy=0;entryPerimeter=0;" edge="1" parent="1" target="3nuBFxr9cyL0pnOWT2aG-1">
          <mxGeometry width="80" relative="1" as="geometry">
            <mxPoint x="50" y="160" as="sourcePoint" />
            <mxPoint x="130" y="160" as="targetPoint" />
          </mxGeometry>
        </mxCell>
        <mxCell id="I_3hnfbxCUIilwJNc-OJ-14" value="&lt;div style=&quot;text-align: center&quot;&gt;&lt;font face=&quot;helvetica&quot;&gt;&lt;span style=&quot;font-size: 11px ; background-color: rgb(255 , 255 , 255)&quot;&gt;open waitngUI&lt;/span&gt;&lt;/font&gt;&lt;/div&gt;" style="text;whiteSpace=wrap;html=1;" vertex="1" parent="1">
          <mxGeometry x="380" y="250" width="90" height="30" as="geometry" />
        </mxCell>
        <mxCell id="I_3hnfbxCUIilwJNc-OJ-17" value="open waitingUI" style="html=1;verticalAlign=bottom;endArrow=open;dashed=1;endSize=8;rounded=0;exitX=0.436;exitY=0.4;exitDx=0;exitDy=0;exitPerimeter=0;" edge="1" parent="1" source="3nuBFxr9cyL0pnOWT2aG-1" target="I_3hnfbxCUIilwJNc-OJ-1">
          <mxGeometry relative="1" as="geometry">
            <mxPoint x="140" y="200" as="sourcePoint" />
            <mxPoint x="60" y="200" as="targetPoint" />
          </mxGeometry>
        </mxCell>
      </root>
    </mxGraphModel>
  </diagram>
</mxfile>
